<?xml version="1.0" encoding="utf-8"?>
<!-- Generator: Adobe Illustrator 27.5.0, SVG Export Plug-In . SVG Version: 6.00 Build 0)  -->
<svg version="1.1" xmlns="http://www.w3.org/2000/svg" xmlns:xlink="http://www.w3.org/1999/xlink" x="0px" y="0px"
	 viewBox="0 0 1122 1122" style="enable-background:new 0 0 1122 1122;" xml:space="preserve">
<g id="Bg">
	<g>
		<g>
			<rect style="fill:#FFFFFF;" width="1122" height="1122"/>
		</g>
	</g>
</g>
<g id="Object">
	<g>
		<path style="fill:#AAD4C8;" d="M348.059,276.582c-3.395,0-6.725,1.377-9.124,3.783c-2.406,2.402-3.783,5.729-3.783,9.127v385.894
			c0,3.398,1.377,6.725,3.783,9.127c2.399,2.406,5.729,3.783,9.124,3.783h132.729V450.911c0-2.269,0.925-4.484,2.522-6.084
			c1.597-1.607,3.822-2.522,6.091-2.522h160.418V289.491c0-3.398-1.371-6.725-3.776-9.127c-2.405-2.405-5.723-3.783-9.137-3.783
			H348.059z M473.811,603.741H372.332v-25.807h101.479V603.741z M473.811,545.326H370.573V519.52h103.238V545.326z M473.811,486.914
			H372.332v-25.816h101.479V486.914z M612.645,428.493H372.332v-25.816h240.312V428.493z M612.645,370.082H396.742v-25.816h215.903
			V370.082z"/>
		<rect x="396.742" y="344.266" style="fill:#616E7D;" width="215.903" height="25.816"/>
		<rect x="372.332" y="402.678" style="fill:#616E7D;" width="240.312" height="25.816"/>
		<rect x="372.332" y="461.099" style="fill:#616E7D;" width="101.479" height="25.816"/>
		<rect x="370.573" y="519.52" style="fill:#616E7D;" width="103.238" height="25.806"/>
		<rect x="372.332" y="577.935" style="fill:#616E7D;" width="101.479" height="25.806"/>
		<path style="fill:#FFFFFF;" d="M498.007,828.202h271.629V459.521H498.007V828.202z M538.071,505.686h215.91v25.812h-215.91
			V505.686z M513.674,564.107h240.306v25.813H513.674V564.107z M513.674,622.528h240.306v25.806H513.674V622.528z M513.674,680.94
			h240.306v25.816H513.674V680.94z M513.674,739.361h180.579v25.806H513.674V739.361z"/>
		<path style="fill:#616E7D;" d="M649.819,442.305H489.401c-2.269,0-4.494,0.915-6.091,2.522c-1.597,1.6-2.522,3.815-2.522,6.084
			v237.384v148.517c0,2.263,0.925,4.484,2.522,6.084c1.597,1.607,3.822,2.522,6.091,2.522h288.841c2.27,0,4.487-0.915,6.098-2.522
			c1.604-1.6,2.509-3.821,2.509-6.084V450.911c0-2.266-0.905-4.484-2.509-6.084c-1.61-1.607-3.828-2.522-6.098-2.522H649.819z
			 M769.635,828.202H498.007V459.521h271.629V828.202z"/>
		<rect x="538.071" y="505.686" style="fill:#82BFAB;" width="215.91" height="25.812"/>
		<rect x="513.674" y="564.107" style="fill:#82BFAB;" width="240.307" height="25.813"/>
		<rect x="513.674" y="622.528" style="fill:#82BFAB;" width="240.307" height="25.806"/>
		<rect x="513.674" y="680.94" style="fill:#82BFAB;" width="240.307" height="25.816"/>
		<rect x="513.674" y="739.361" style="fill:#82BFAB;" width="180.579" height="25.806"/>
	</g>
</g>
</svg>
